<svg xmlns="http://www.w3.org/2000/svg"><defs><pattern id="a" width="40" height="40" patternTransform="scale(2)" patternUnits="userSpaceOnUse"><rect width="100%" height="100%" fill="#2b2b31"/><path fill="none" stroke="#a855f7" d="M40 45a5 5 0 1 1 0-10 5 5 0 0 1 0 10zM0 45a5 5 0 1 1 0-10 5 5 0 0 1 0 10zM0 5A5 5 0 1 1 0-5 5 5 0 0 1 0 5zm40 0a5 5 0 1 1 0-10 5 5 0 0 1 0 10z"/><path fill="none" stroke="#ec4899" d="M20 25a5 5 0 1 1 0-10 5 5 0 0 1 0 10z"/></pattern></defs><rect width="800%" height="800%" fill="url(#a)"/></svg>