<svg xmlns="http://www.w3.org/2000/svg" width="24" height="24" viewBox="0 0 24 24" fill="#06C755">
  <path d="M12 2C6.48 2 2 5.82 2 10.5c0 2.55 1.26 4.83 3.23 6.35l-.47 3.42c-.04.32.1.64.36.82.15.1.32.16.5.16.14 0 .28-.04.41-.11l3.65-2.05c.74.14 1.51.21 2.32.21 5.52 0 10-3.82 10-8.5S17.52 2 12 2zm-3.26 10.68H6.7a.52.52 0 0 1-.52-.52V8.81c0-.29.23-.52.52-.52s.52.23.52.52v3.3h1.5c.29 0 .52.23.52.52s-.23.52-.52.52zm1.47 0c-.29 0-.52-.23-.52-.52V8.81c0-.29.23-.52.52-.52s.52.23.52.52v3.35c0 .29-.23.52-.52.52zm4.78 0h-.04a.52.52 0 0 1-.44-.27l-1.89-2.56v2.31c0 .29-.23.52-.52.52s-.52-.23-.52-.52V8.81c0-.25.17-.46.41-.51.24-.05.49.07.6.28l1.88 2.52V8.81c0-.29.23-.52.52-.52s.52.23.52.52v3.35a.52.52 0 0 1-.52.52zm3.7-3.31h-1.46v.83h1.46c.29 0 .52.23.52.52s-.23.52-.52.52h-1.46v.83h1.46c.29 0 .52.23.52.52s-.23.52-.52.52h-2c-.29 0-.52-.23-.52-.52V8.81c0-.29.23-.52.52-.52h2c.29 0 .52.23.52.52s-.23.52-.52.52z"/>
</svg>