<svg xmlns="http://www.w3.org/2000/svg" width="24" height="24" viewBox="0 0 24 24" fill="#07C160">
  <path d="M8.5 4C5.46 4 3 6.12 3 8.71c0 1.44.75 2.73 1.93 3.59v2.4l2.28-1.21c.41.08.84.13 1.29.13 3.04 0 5.5-2.12 5.5-4.71S11.54 4 8.5 4zm-1 3.5a.75.75 0 1 1 0 1.5.75.75 0 0 1 0-1.5zm3 0a.75.75 0 1 1 0 1.5.75.75 0 0 1 0-1.5zM15.5 9c-1.2 0-2.32.32-3.25.86.17.58.25 1.19.25 1.85 0 3.42-3.13 6.21-7 6.21-.17 0-.33 0-.5-.02C6.26 19.68 8.67 21 11.5 21c.45 0 .88-.05 1.29-.13l2.28 1.21v-2.4c1.18-.86 1.93-2.15 1.93-3.59 0-2.59-2.46-4.71-5.5-4.71v-2.38zm-1 4.5a.75.75 0 1 1 0 1.5.75.75 0 0 1 0-1.5zm3 0a.75.75 0 1 1 0 1.5.75.75 0 0 1 0-1.5z"/>
</svg>